<mxfile host="app.diagrams.net" agent="Mozilla/5.0 (Windows NT 10.0; Win64; x64) AppleWebKit/537.36 (KHTML, like Gecko) Chrome/131.0.0.0 Safari/537.36" version="25.0.1">
  <diagram name="Page-1" id="mF0Je8vNJJQTuUTpVS8G">
    <mxGraphModel dx="1050" dy="530" grid="1" gridSize="10" guides="1" tooltips="1" connect="1" arrows="1" fold="1" page="1" pageScale="1" pageWidth="827" pageHeight="1169" math="0" shadow="0">
      <root>
        <mxCell id="0" />
        <mxCell id="1" parent="0" />
        <mxCell id="Um4Nvk2irDW_j42QmH87-16" style="edgeStyle=orthogonalEdgeStyle;rounded=0;orthogonalLoop=1;jettySize=auto;html=1;" edge="1" parent="1" source="Um4Nvk2irDW_j42QmH87-1">
          <mxGeometry relative="1" as="geometry">
            <mxPoint x="360" y="190" as="targetPoint" />
          </mxGeometry>
        </mxCell>
        <mxCell id="Um4Nvk2irDW_j42QmH87-1" value="bắt đầu" style="ellipse;whiteSpace=wrap;html=1;" vertex="1" parent="1">
          <mxGeometry x="300" y="60" width="120" height="70" as="geometry" />
        </mxCell>
        <mxCell id="Um4Nvk2irDW_j42QmH87-19" style="edgeStyle=orthogonalEdgeStyle;rounded=0;orthogonalLoop=1;jettySize=auto;html=1;entryX=0.5;entryY=0;entryDx=0;entryDy=0;" edge="1" parent="1" source="Um4Nvk2irDW_j42QmH87-17" target="Um4Nvk2irDW_j42QmH87-18">
          <mxGeometry relative="1" as="geometry" />
        </mxCell>
        <mxCell id="Um4Nvk2irDW_j42QmH87-17" value="nhập a,b,c" style="shape=parallelogram;perimeter=parallelogramPerimeter;whiteSpace=wrap;html=1;fixedSize=1;" vertex="1" parent="1">
          <mxGeometry x="300" y="190" width="120" height="50" as="geometry" />
        </mxCell>
        <mxCell id="Um4Nvk2irDW_j42QmH87-18" value="max=a" style="shape=parallelogram;perimeter=parallelogramPerimeter;whiteSpace=wrap;html=1;fixedSize=1;" vertex="1" parent="1">
          <mxGeometry x="294" y="300" width="120" height="60" as="geometry" />
        </mxCell>
        <mxCell id="Um4Nvk2irDW_j42QmH87-22" value="true" style="edgeStyle=orthogonalEdgeStyle;rounded=0;orthogonalLoop=1;jettySize=auto;html=1;" edge="1" parent="1" source="Um4Nvk2irDW_j42QmH87-20">
          <mxGeometry relative="1" as="geometry">
            <mxPoint x="460" y="440" as="targetPoint" />
          </mxGeometry>
        </mxCell>
        <mxCell id="Um4Nvk2irDW_j42QmH87-26" style="edgeStyle=orthogonalEdgeStyle;rounded=0;orthogonalLoop=1;jettySize=auto;html=1;" edge="1" parent="1" source="Um4Nvk2irDW_j42QmH87-20">
          <mxGeometry relative="1" as="geometry">
            <mxPoint x="354" y="530" as="targetPoint" />
          </mxGeometry>
        </mxCell>
        <mxCell id="Um4Nvk2irDW_j42QmH87-30" value="false" style="edgeLabel;html=1;align=center;verticalAlign=middle;resizable=0;points=[];" vertex="1" connectable="0" parent="Um4Nvk2irDW_j42QmH87-26">
          <mxGeometry x="-0.2872" y="2" relative="1" as="geometry">
            <mxPoint as="offset" />
          </mxGeometry>
        </mxCell>
        <mxCell id="Um4Nvk2irDW_j42QmH87-20" value="max&amp;lt;b" style="rhombus;whiteSpace=wrap;html=1;" vertex="1" parent="1">
          <mxGeometry x="314" y="400" width="80" height="80" as="geometry" />
        </mxCell>
        <mxCell id="Um4Nvk2irDW_j42QmH87-21" style="edgeStyle=orthogonalEdgeStyle;rounded=0;orthogonalLoop=1;jettySize=auto;html=1;entryX=0.57;entryY=0.115;entryDx=0;entryDy=0;entryPerimeter=0;" edge="1" parent="1" source="Um4Nvk2irDW_j42QmH87-18" target="Um4Nvk2irDW_j42QmH87-20">
          <mxGeometry relative="1" as="geometry" />
        </mxCell>
        <mxCell id="Um4Nvk2irDW_j42QmH87-36" style="edgeStyle=orthogonalEdgeStyle;rounded=0;orthogonalLoop=1;jettySize=auto;html=1;" edge="1" parent="1" source="Um4Nvk2irDW_j42QmH87-23">
          <mxGeometry relative="1" as="geometry">
            <mxPoint x="350" y="510" as="targetPoint" />
            <Array as="points">
              <mxPoint x="510" y="480" />
              <mxPoint x="461" y="480" />
            </Array>
          </mxGeometry>
        </mxCell>
        <mxCell id="Um4Nvk2irDW_j42QmH87-23" value="max=b" style="shape=parallelogram;perimeter=parallelogramPerimeter;whiteSpace=wrap;html=1;fixedSize=1;" vertex="1" parent="1">
          <mxGeometry x="450" y="410" width="120" height="30" as="geometry" />
        </mxCell>
        <mxCell id="Um4Nvk2irDW_j42QmH87-28" style="edgeStyle=orthogonalEdgeStyle;rounded=0;orthogonalLoop=1;jettySize=auto;html=1;exitX=1;exitY=0.5;exitDx=0;exitDy=0;" edge="1" parent="1" source="Um4Nvk2irDW_j42QmH87-27">
          <mxGeometry relative="1" as="geometry">
            <mxPoint x="490" y="570" as="targetPoint" />
          </mxGeometry>
        </mxCell>
        <mxCell id="Um4Nvk2irDW_j42QmH87-29" value="true" style="edgeLabel;html=1;align=center;verticalAlign=middle;resizable=0;points=[];" vertex="1" connectable="0" parent="Um4Nvk2irDW_j42QmH87-28">
          <mxGeometry x="-0.2788" y="-2" relative="1" as="geometry">
            <mxPoint as="offset" />
          </mxGeometry>
        </mxCell>
        <mxCell id="Um4Nvk2irDW_j42QmH87-32" value="false" style="edgeStyle=orthogonalEdgeStyle;rounded=0;orthogonalLoop=1;jettySize=auto;html=1;" edge="1" parent="1" source="Um4Nvk2irDW_j42QmH87-27">
          <mxGeometry relative="1" as="geometry">
            <mxPoint x="354" y="670" as="targetPoint" />
          </mxGeometry>
        </mxCell>
        <mxCell id="Um4Nvk2irDW_j42QmH87-27" value="max&amp;lt;c" style="rhombus;whiteSpace=wrap;html=1;" vertex="1" parent="1">
          <mxGeometry x="314" y="530" width="80" height="80" as="geometry" />
        </mxCell>
        <mxCell id="Um4Nvk2irDW_j42QmH87-38" style="edgeStyle=orthogonalEdgeStyle;rounded=0;orthogonalLoop=1;jettySize=auto;html=1;" edge="1" parent="1" source="Um4Nvk2irDW_j42QmH87-31">
          <mxGeometry relative="1" as="geometry">
            <mxPoint x="360" y="660" as="targetPoint" />
            <Array as="points">
              <mxPoint x="540" y="630" />
              <mxPoint x="491" y="630" />
            </Array>
          </mxGeometry>
        </mxCell>
        <mxCell id="Um4Nvk2irDW_j42QmH87-31" value="max=c" style="shape=parallelogram;perimeter=parallelogramPerimeter;whiteSpace=wrap;html=1;fixedSize=1;" vertex="1" parent="1">
          <mxGeometry x="480" y="540" width="120" height="60" as="geometry" />
        </mxCell>
        <mxCell id="Um4Nvk2irDW_j42QmH87-34" style="edgeStyle=orthogonalEdgeStyle;rounded=0;orthogonalLoop=1;jettySize=auto;html=1;" edge="1" parent="1" source="Um4Nvk2irDW_j42QmH87-33">
          <mxGeometry relative="1" as="geometry">
            <mxPoint x="354" y="770" as="targetPoint" />
          </mxGeometry>
        </mxCell>
        <mxCell id="Um4Nvk2irDW_j42QmH87-33" value="xuất max" style="shape=parallelogram;perimeter=parallelogramPerimeter;whiteSpace=wrap;html=1;fixedSize=1;" vertex="1" parent="1">
          <mxGeometry x="294" y="670" width="120" height="40" as="geometry" />
        </mxCell>
        <mxCell id="Um4Nvk2irDW_j42QmH87-35" value="kết thúc" style="ellipse;whiteSpace=wrap;html=1;" vertex="1" parent="1">
          <mxGeometry x="294" y="770" width="120" height="80" as="geometry" />
        </mxCell>
      </root>
    </mxGraphModel>
  </diagram>
</mxfile>
